<mxfile host="app.diagrams.net" modified="2021-08-01T18:33:23.092Z" agent="5.0 (Macintosh; Intel Mac OS X 10_15_7) AppleWebKit/537.36 (KHTML, like Gecko) Chrome/92.0.4515.107 Safari/537.36" etag="UP17bwUrNDt9hqWaXkgp" version="14.9.2" type="github">
  <diagram id="4vFJtMvn7GdaALDxfg6_" name="Page-1">
    <mxGraphModel dx="946" dy="614" grid="1" gridSize="10" guides="1" tooltips="1" connect="1" arrows="1" fold="1" page="1" pageScale="1" pageWidth="827" pageHeight="1169" math="0" shadow="0">
      <root>
        <mxCell id="0" />
        <mxCell id="1" parent="0" />
        <mxCell id="jTmc7ANiE4eTdV9CGmM9-1" value="Client" style="rounded=1;whiteSpace=wrap;html=1;strokeWidth=2;" vertex="1" parent="1">
          <mxGeometry x="200" y="140" width="120" height="60" as="geometry" />
        </mxCell>
        <mxCell id="jTmc7ANiE4eTdV9CGmM9-2" value="Client" style="rounded=1;whiteSpace=wrap;html=1;strokeWidth=2;" vertex="1" parent="1">
          <mxGeometry x="400" y="140" width="120" height="60" as="geometry" />
        </mxCell>
        <mxCell id="jTmc7ANiE4eTdV9CGmM9-3" value="Nginx" style="rounded=1;whiteSpace=wrap;html=1;strokeWidth=2;" vertex="1" parent="1">
          <mxGeometry x="294" y="290" width="120" height="60" as="geometry" />
        </mxCell>
        <mxCell id="jTmc7ANiE4eTdV9CGmM9-4" value="Apache" style="rounded=1;whiteSpace=wrap;html=1;strokeWidth=2;" vertex="1" parent="1">
          <mxGeometry x="400" y="440" width="120" height="60" as="geometry" />
        </mxCell>
        <mxCell id="jTmc7ANiE4eTdV9CGmM9-5" value="Apache" style="rounded=1;whiteSpace=wrap;html=1;strokeWidth=2;" vertex="1" parent="1">
          <mxGeometry x="200" y="440" width="120" height="60" as="geometry" />
        </mxCell>
        <mxCell id="jTmc7ANiE4eTdV9CGmM9-6" value="" style="endArrow=classic;html=1;entryX=0.5;entryY=0;entryDx=0;entryDy=0;strokeWidth=2;" edge="1" parent="1" source="jTmc7ANiE4eTdV9CGmM9-1" target="jTmc7ANiE4eTdV9CGmM9-3">
          <mxGeometry width="50" height="50" relative="1" as="geometry">
            <mxPoint x="120" y="280" as="sourcePoint" />
            <mxPoint x="170" y="230" as="targetPoint" />
          </mxGeometry>
        </mxCell>
        <mxCell id="jTmc7ANiE4eTdV9CGmM9-7" value="" style="endArrow=classic;html=1;entryX=0.5;entryY=0;entryDx=0;entryDy=0;strokeWidth=2;exitX=0.5;exitY=1;exitDx=0;exitDy=0;" edge="1" parent="1" source="jTmc7ANiE4eTdV9CGmM9-2" target="jTmc7ANiE4eTdV9CGmM9-3">
          <mxGeometry width="50" height="50" relative="1" as="geometry">
            <mxPoint x="293.5" y="210" as="sourcePoint" />
            <mxPoint x="364" y="300" as="targetPoint" />
          </mxGeometry>
        </mxCell>
        <mxCell id="jTmc7ANiE4eTdV9CGmM9-8" value="" style="endArrow=classic;html=1;entryX=0.5;entryY=0;entryDx=0;entryDy=0;strokeWidth=2;exitX=0.5;exitY=1;exitDx=0;exitDy=0;" edge="1" parent="1" source="jTmc7ANiE4eTdV9CGmM9-3" target="jTmc7ANiE4eTdV9CGmM9-4">
          <mxGeometry width="50" height="50" relative="1" as="geometry">
            <mxPoint x="470" y="210" as="sourcePoint" />
            <mxPoint x="364" y="300" as="targetPoint" />
          </mxGeometry>
        </mxCell>
        <mxCell id="jTmc7ANiE4eTdV9CGmM9-9" value="" style="endArrow=classic;html=1;strokeWidth=2;exitX=0.5;exitY=1;exitDx=0;exitDy=0;" edge="1" parent="1" source="jTmc7ANiE4eTdV9CGmM9-3">
          <mxGeometry width="50" height="50" relative="1" as="geometry">
            <mxPoint x="480" y="220" as="sourcePoint" />
            <mxPoint x="260" y="440" as="targetPoint" />
          </mxGeometry>
        </mxCell>
      </root>
    </mxGraphModel>
  </diagram>
</mxfile>
